<?xml version="1.0" encoding="UTF-8" standalone="no"?>
<svg
   xmlns:dc="http://purl.org/dc/elements/1.1/"
   xmlns:cc="http://creativecommons.org/ns#"
   xmlns:rdf="http://www.w3.org/1999/02/22-rdf-syntax-ns#"
   xmlns:svg="http://www.w3.org/2000/svg"
   xmlns="http://www.w3.org/2000/svg"
   width="60"
   height="60"
   version="1.1"
   id="svg8"
   >
  <defs
     id="defs2" />
  <metadata
     id="metadata5">
    <rdf:RDF>
      <cc:Work
         rdf:about="">
        <dc:format>image/svg+xml</dc:format>
        <dc:type
           rdf:resource="http://purl.org/dc/dcmitype/StillImage" />
        <dc:title />
      </cc:Work>
    </rdf:RDF>
  </metadata>
  <path
     style="opacity:1;fill:#666666;fill-opacity:1;fill-rule:nonzero;stroke:none;stroke-width:1;stroke-linecap:butt;stroke-linejoin:miter;stroke-miterlimit:4;stroke-dasharray:none;stroke-opacity:1"
     d="M 10,0 A 9.9999995,9.9999995 0 0 1 0,9.999999 V 30.000001 A 9.9999995,9.9999995 0 0 1 10,40 H 30 A 9.9999999,9.9999999 0 0 1 40,30.000001 V 9.999999 A 9.9999995,9.9999995 0 0 1 30,0 Z"
     id="rect4520"
     />
  <path
     style="display:inline;opacity:1;fill:#b3b3b3;fill-opacity:1;fill-rule:nonzero;stroke:none;stroke-width:0.9999997;stroke-linecap:butt;stroke-linejoin:miter;stroke-miterlimit:4;stroke-dasharray:none;stroke-opacity:1"
     d="M 50,39.999981 A 10.000001,9.9999936 0 0 1 40,50 10.000001,9.9999936 0 0 1 30,39.999981 10.000001,9.9999936 0 0 1 40,30 10.000001,9.9999936 0 0 1 50,39.999981 Z"
     id="path4522"
     />
</svg>
