<?xml version="1.0" encoding="UTF-8" standalone="no"?>
<svg
   xmlns:dc="http://purl.org/dc/elements/1.1/"
   xmlns:cc="http://creativecommons.org/ns#"
   xmlns:rdf="http://www.w3.org/1999/02/22-rdf-syntax-ns#"
   xmlns:svg="http://www.w3.org/2000/svg"
   xmlns="http://www.w3.org/2000/svg"
   width="60"
   height="60"
   version="1.1"
   id="svg8"
   >
  <defs
     id="defs2" />
  <metadata
     id="metadata5">
    <rdf:RDF>
      <cc:Work
         rdf:about="">
        <dc:format>image/svg+xml</dc:format>
        <dc:type
           rdf:resource="http://purl.org/dc/dcmitype/StillImage" />
        <dc:title />
      </cc:Work>
    </rdf:RDF>
  </metadata>
  <path
     style="opacity:1;fill:#333333;fill-opacity:1;fill-rule:nonzero;stroke:none;stroke-width:0.9999997;stroke-linecap:butt;stroke-linejoin:miter;stroke-miterlimit:4;stroke-dasharray:none;stroke-opacity:1"
     d="M 50,39.999981 A 10.000001,9.9999936 0 0 1 40,50 10.000001,9.9999936 0 0 1 30,39.999981 10.000001,9.9999936 0 0 1 40,30 10.000001,9.9999936 0 0 1 50,39.999981 Z"
     id="path4522"
     />
  <path
     style="opacity:1;fill:#cccccc;fill-opacity:1;fill-rule:nonzero;stroke:none;stroke-width:1.00000012;stroke-linecap:butt;stroke-linejoin:miter;stroke-miterlimit:4;stroke-dasharray:none;stroke-opacity:1"
     d="M 10,0 A 9.9999994,10.000002 0 0 1 0,9.9999906 V 20.000019 A 19.999999,20.000005 0 0 1 20,40 H 30.000001 A 9.9999994,10.000002 0 0 1 40,30.000009 v -9.99999 A 19.999999,20.000005 0 0 1 20,0 Z"
     id="rect4520"
     />
</svg>
