<?xml version="1.0" encoding="UTF-8"?>
<svg id="svg8" width="60" height="60" version="1.1" xmlns="http://www.w3.org/2000/svg" xmlns:cc="http://creativecommons.org/ns#" xmlns:dc="http://purl.org/dc/elements/1.1/" xmlns:rdf="http://www.w3.org/1999/02/22-rdf-syntax-ns#">
 <metadata id="metadata5">
  <rdf:RDF>
   <cc:Work rdf:about="">
    <dc:format>image/svg+xml</dc:format>
    <dc:type rdf:resource="http://purl.org/dc/dcmitype/StillImage"/>
    <dc:title/>
   </cc:Work>
  </rdf:RDF>
 </metadata>
 <path id="path4522" d="m50 40a10 10 0 0 1-10 10 10 10 0 0 1-10-10 10 10 0 0 1 10-10 10 10 0 0 1 10 10z" fill="#ccc"/>
 <path id="rect4520" d="m10 0a10 10 0 0 1-10 10v20a10 10 0 0 1 10 10h10a20 20 0 0 1 20-20v-10a10 10 0 0 1-10-10z" fill="#333"/>
</svg>
